<?xml version="1.0" encoding="utf-8"?>
<!-- Generator: Adobe Illustrator 27.4.1, SVG Export Plug-In . SVG Version: 6.00 Build 0)  -->
<svg version="1.1" id="Layer_1" xmlns="http://www.w3.org/2000/svg" xmlns:xlink="http://www.w3.org/1999/xlink" x="0px" y="0px"
	 viewBox="0 0 100 100" style="enable-background:new 0 0 100 100;" xml:space="preserve">
<style type="text/css">
	.st0{fill:#6C9933;}
	.st1{fill:#FFFFFF;}
</style>
<circle class="st0" cx="50" cy="50" r="50"/>
<path class="st1" d="M17.5,29h2.8v35c0,9.5,7.7,17.5,17.1,17.8c4.8,0.1,9.3-1.6,12.8-5c3.4-3.3,5.3-7.8,5.3-12.6V40.1
	c0-3.5,2.8-6.6,6.3-6.8c1.9-0.1,3.6,0.5,4.9,1.8s2.1,3,2.1,4.8v14.9h-2.7c-0.8,0-1.4,0.6-1.4,1.4v8.1c0,0.8,0.6,1.4,1.4,1.4h16.3
	c0.8,0,1.4-0.6,1.4-1.4v-8.1c0-0.8-0.6-1.4-1.4-1.4h-2.8V40c0-9.5-7.4-17.2-16.9-17.6H62c-9.7,0.4-17.6,8.6-17.6,18.3v23.4
	c0,3.5-2.8,6.6-6.3,6.8c-1.8,0.1-3.6-0.5-4.9-1.8c-1.3-1.3-2.1-3-2.1-4.8V29h2.6c0.8,0,1.4-0.6,1.4-1.4v-8.1c0-0.8-0.6-1.4-1.4-1.4
	H17.5c-0.8,0-1.4,0.6-1.4,1.4v8.1C16.1,28.4,16.7,29,17.5,29z M81.1,57.8V63H67.6v-5.2H81.1z M71.6,54.9v-9.5h5.2v9.5H71.6z
	 M63.5,25.3l0.7,0.1c7.2,1,12.6,7.3,12.6,14.6v2.6h-5.2V40c0-4.5-3.2-8.4-7.6-9.3l-0.5-0.1C63.6,30.6,63.6,25.3,63.5,25.3z M47.3,40
	c0-7.3,5.4-13.6,12.6-14.6l0.7-0.1v5.3l-0.5,0.1c-4.4,0.9-7.6,4.8-7.6,9.3v2.6h-5.2C47.4,42.6,47.4,40,47.3,40z M47.3,45.4h5.2v13.4
	h-5.2C47.3,58.8,47.3,45.4,47.3,45.4z M39.3,73.6l0.5-0.1c4.4-0.9,7.6-4.8,7.6-9.3v-2.6h5.2v2.6c0,7.3-5.4,13.6-12.6,14.6l-0.7,0.1
	C39.3,78.9,39.3,73.6,39.3,73.6z M35.9,73.5l0.5,0.1v5.3l-0.7-0.1c-7.2-1-12.6-7.3-12.6-14.6v-2.6h5.2v2.6
	C28.3,68.7,31.5,72.6,35.9,73.5z M28.3,45.4v13.4h-5.2V45.4C23.1,45.4,28.3,45.4,28.3,45.4z M23.1,42.6V29h5.2v13.6
	C28.3,42.6,23.1,42.6,23.1,42.6z M18.9,20.9h13.5v5.2H18.9V20.9z M74.3,70.2c-0.1,0-0.2,0-0.3,0.2l-3.2,4c-1.1,1.4-1.3,3.2-0.5,4.8
	c0.8,1.6,2.3,2.6,4.1,2.6c1.8,0,3.3-1,4.1-2.6c0.8-1.6,0.6-3.4-0.5-4.8l-3.2-4C74.5,70.3,74.4,70.2,74.3,70.2z"/>
</svg>
