<?xml version="1.0" encoding="UTF-8"?>
<svg xmlns="http://www.w3.org/2000/svg" viewBox="0 0 3088.15 1548.6">
  <defs>
    <style>
      .cls-1 {
        fill: #32b266;
      }

      .cls-2 {
        font-size: 31px;
      }

      .cls-2, .cls-3, .cls-4 {
        font-family: MyriadPro-Regular, 'Myriad Pro';
      }

      .cls-5 {
        letter-spacing: 0em;
      }

      .cls-3 {
        font-size: 21px;
      }

      .cls-6 {
        letter-spacing: 0em;
      }

      .cls-7 {
        letter-spacing: 0em;
      }

      .cls-8 {
        fill: #f9c;
      }

      .cls-9 {
        fill: none;
      }

      .cls-9, .cls-10 {
        stroke: #000;
        stroke-miterlimit: 10;
        stroke-width: 3px;
      }

      .cls-11 {
        fill: #5bcc5b;
      }

      .cls-10 {
        fill: #0a0909;
      }

      .cls-12 {
        fill: #32ccfe;
      }

      .cls-4 {
        font-size: 20.61px;
      }

      .cls-13 {
        letter-spacing: 0em;
      }

      .cls-14 {
        fill: #8433af;
      }

      .cls-15 {
        fill: #af3366;
      }
    </style>
  </defs>
  <g id="Layer_1" data-name="Layer 1">
    <rect class="cls-9" x="580.55" y="1.5" width="80.84" height="81.34"/>
    <line class="cls-9" x1="580.55" y1="1.5" x2="579.05" y2="1.5"/>
    <rect class="cls-9" x="661.39" y="1.5" width="80.84" height="81.34"/>
    <rect class="cls-9" x="742.23" y="1.5" width="80.84" height="81.34"/>
    <rect class="cls-9" x="823.07" y="1.5" width="80.84" height="81.34"/>
    <rect class="cls-9" x="903.91" y="1.5" width="80.85" height="81.34"/>
    <rect class="cls-9" x="984.76" y="1.5" width="80.84" height="81.34"/>
    <rect class="cls-9" x="1065.6" y="1.5" width="80.84" height="81.34"/>
    <rect class="cls-9" x="1146.44" y="1.5" width="80.84" height="81.34"/>
    <rect class="cls-9" x="1227.28" y="1.5" width="80.84" height="81.34"/>
    <rect class="cls-9" x="1308.12" y="1.5" width="80.85" height="81.34"/>
    <rect class="cls-9" x="1388.97" y="1.5" width="80.84" height="81.34"/>
    <rect class="cls-9" x="1469.81" y="1.5" width="80.84" height="81.34"/>
    <rect class="cls-9" x="1550.65" y="1.5" width="80.84" height="81.34"/>
    <rect class="cls-9" x="1631.49" y="1.5" width="80.85" height="81.34"/>
    <rect class="cls-9" x="1712.34" y="1.5" width="80.84" height="81.34"/>
    <rect class="cls-9" x="1793.18" y="1.5" width="80.84" height="81.34"/>
    <rect class="cls-9" x="1874.02" y="1.5" width="80.84" height="81.34"/>
    <rect class="cls-9" x="1954.86" y="1.5" width="80.84" height="81.34"/>
    <rect class="cls-9" x="2035.7" y="1.5" width="80.85" height="81.34"/>
    <rect class="cls-9" x="2116.55" y="1.5" width="80.84" height="81.34"/>
    <rect class="cls-9" x="2197.39" y="1.5" width="80.84" height="81.34"/>
    <rect class="cls-9" x="2278.23" y="1.5" width="80.84" height="81.34"/>
    <rect class="cls-9" x="2359.07" y="1.5" width="80.84" height="81.34"/>
    <rect class="cls-9" x="2439.91" y="1.5" width="80.85" height="81.34"/>
    <rect class="cls-9" x="2520.76" y="1.5" width="80.84" height="81.34"/>
    <rect class="cls-9" x="2601.6" y="1.5" width="80.84" height="81.34"/>
    <rect class="cls-9" x="2682.44" y="1.5" width="80.84" height="81.34"/>
    <rect class="cls-9" x="2844.12" y="1.5" width="80.85" height="81.34"/>
    <rect class="cls-9" x="2924.97" y="1.5" width="80.84" height="81.34"/>
    <rect class="cls-9" x="2763.28" y="1.5" width="80.84" height="81.34"/>
    <line class="cls-9" x1="580.55" y1="82.84" x2="579.05" y2="82.84"/>
    <line class="cls-10" x1="3086.65" y1="164.19" x2="579.05" y2="164.19"/>
    <line class="cls-10" x1="3086.65" y1="245.54" x2="579.05" y2="245.54"/>
    <line class="cls-10" x1="3086.65" y1="326.89" x2="579.05" y2="326.89"/>
    <line class="cls-10" x1="3086.65" y1="408.23" x2="579.05" y2="408.23"/>
    <line class="cls-10" x1="3086.65" y1="489.58" x2="579.05" y2="489.58"/>
    <line class="cls-10" x1="3086.65" y1="570.93" x2="579.05" y2="570.93"/>
    <line class="cls-10" x1="3086.65" y1="652.27" x2="579.05" y2="652.27"/>
    <line class="cls-10" x1="3086.65" y1="733.62" x2="579.05" y2="733.62"/>
    <line class="cls-10" x1="3086.65" y1="814.97" x2="579.05" y2="814.97"/>
    <line class="cls-10" x1="3086.65" y1="896.32" x2="579.05" y2="896.32"/>
    <line class="cls-10" x1="3086.65" y1="977.66" x2="579.05" y2="977.66"/>
    <line class="cls-10" x1="3086.65" y1="1059.01" x2="579.05" y2="1059.01"/>
    <line class="cls-10" x1="3086.65" y1="1140.36" x2="579.05" y2="1140.36"/>
    <line class="cls-10" x1="3086.65" y1="1221.71" x2="579.05" y2="1221.71"/>
    <line class="cls-10" x1="3086.65" y1="1303.05" x2="579.05" y2="1303.05"/>
    <line class="cls-10" x1="3086.65" y1="1384.4" x2="579.05" y2="1384.4"/>
    <line class="cls-10" x1="3086.65" y1="1465.75" x2="579.05" y2="1465.75"/>
    <line class="cls-9" x1="3086.65" y1="1547.1" x2="579.05" y2="1547.1"/>
  </g>
  <g id="horizonal_line" data-name="horizonal line">
    <g>
      <line class="cls-9" x1="580.55" y1="1547.1" x2="580.55" y2="82.84"/>
      <line class="cls-9" x1="661.39" y1="1547.1" x2="661.39" y2="82.84"/>
      <line class="cls-9" x1="742.23" y1="1547.1" x2="742.23" y2="82.84"/>
      <line class="cls-9" x1="823.07" y1="1547.1" x2="823.07" y2="82.84"/>
      <line class="cls-9" x1="903.91" y1="1547.1" x2="903.91" y2="82.84"/>
      <line class="cls-9" x1="984.76" y1="1547.1" x2="984.76" y2="82.84"/>
      <line class="cls-9" x1="1065.6" y1="1547.1" x2="1065.6" y2="82.84"/>
      <line class="cls-9" x1="1146.44" y1="1547.1" x2="1146.44" y2="82.84"/>
      <line class="cls-9" x1="1227.28" y1="1547.1" x2="1227.28" y2="82.84"/>
      <line class="cls-9" x1="1308.12" y1="1547.1" x2="1308.12" y2="82.84"/>
      <line class="cls-9" x1="1388.97" y1="1547.1" x2="1388.97" y2="82.84"/>
      <line class="cls-9" x1="1469.81" y1="1547.1" x2="1469.81" y2="82.84"/>
      <line class="cls-9" x1="1550.65" y1="1547.1" x2="1550.65" y2="82.84"/>
      <line class="cls-9" x1="1631.49" y1="1547.1" x2="1631.49" y2="82.84"/>
      <line class="cls-9" x1="1712.34" y1="1547.1" x2="1712.34" y2="82.84"/>
      <line class="cls-9" x1="1793.18" y1="1547.1" x2="1793.18" y2="82.84"/>
      <line class="cls-9" x1="1874.02" y1="1547.1" x2="1874.02" y2="82.84"/>
      <line class="cls-9" x1="1954.86" y1="1547.1" x2="1954.86" y2="82.84"/>
      <line class="cls-9" x1="2035.7" y1="1547.1" x2="2035.7" y2="82.84"/>
      <line class="cls-9" x1="2116.55" y1="1547.1" x2="2116.55" y2="82.84"/>
      <line class="cls-9" x1="2197.39" y1="1547.1" x2="2197.39" y2="82.84"/>
      <line class="cls-9" x1="2278.23" y1="1547.1" x2="2278.23" y2="82.84"/>
      <line class="cls-9" x1="2359.07" y1="1547.1" x2="2359.07" y2="82.84"/>
      <line class="cls-9" x1="2439.91" y1="1547.1" x2="2439.91" y2="82.84"/>
      <line class="cls-9" x1="2520.76" y1="1547.1" x2="2520.76" y2="82.84"/>
      <line class="cls-9" x1="2601.6" y1="1547.1" x2="2601.6" y2="82.84"/>
      <line class="cls-9" x1="2682.44" y1="1547.1" x2="2682.44" y2="82.84"/>
      <line class="cls-9" x1="2763.28" y1="1547.1" x2="2763.28" y2="82.84"/>
      <line class="cls-9" x1="2844.12" y1="1547.1" x2="2844.12" y2="82.84"/>
      <line class="cls-9" x1="2924.97" y1="1547.1" x2="2924.97" y2="82.84"/>
      <line class="cls-9" x1="3005.81" y1="1547.1" x2="3005.81" y2="82.84"/>
      <rect class="cls-9" x="3005.81" y="1.5" width="80.84" height="81.34"/>
      <line class="cls-9" x1="3086.65" y1="273.71" x2="3086.65" y2="82.84"/>
      <line class="cls-9" x1="3086.65" y1="413.16" x2="3086.65" y2="354.04"/>
      <line class="cls-9" x1="3086.65" y1="1547.1" x2="3086.65" y2="493.5"/>
    </g>
  </g>
  <g id="text">
    <text class="cls-2" transform="translate(691.2 55.59) scale(.98 1)"><tspan x="0" y="0">1</tspan></text>
    <text class="cls-2" transform="translate(772.06 55.59) scale(.98 1)"><tspan x="0" y="0">2</tspan></text>
    <text class="cls-2" transform="translate(852.92 55.59) scale(.98 1)"><tspan x="0" y="0">3</tspan></text>
    <text class="cls-2" transform="translate(933.78 55.59) scale(.98 1)"><tspan x="0" y="0">4</tspan></text>
    <text class="cls-2" transform="translate(1014.64 55.59) scale(.98 1)"><tspan x="0" y="0">5</tspan></text>
    <text class="cls-2" transform="translate(1095.51 55.59) scale(.98 1)"><tspan x="0" y="0">6</tspan></text>
    <text class="cls-2" transform="translate(1176.37 55.59) scale(.98 1)"><tspan x="0" y="0">7</tspan></text>
    <text class="cls-2" transform="translate(1257.23 55.59) scale(.98 1)"><tspan x="0" y="0">8</tspan></text>
    <text class="cls-2" transform="translate(1338.09 55.59) scale(.98 1)"><tspan x="0" y="0">9</tspan></text>
    <text class="cls-2" transform="translate(1413.11 55.59) scale(.71 1)"><tspan x="0" y="0">10 </tspan></text>
    <text class="cls-2" transform="translate(1493.97 55.59) scale(.71 1)"><tspan x="0" y="0">11 </tspan></text>
    <text class="cls-2" transform="translate(1572.85 55.59) scale(.98 1)"><tspan x="0" y="0">12</tspan></text>
    <text class="cls-2" transform="translate(1653.72 55.59) scale(.98 1)"><tspan x="0" y="0">13</tspan></text>
    <text class="cls-2" transform="translate(1734.58 55.59) scale(.98 1)"><tspan x="0" y="0">14</tspan></text>
    <text class="cls-2" transform="translate(1815.44 55.59) scale(.98 1)"><tspan x="0" y="0">15</tspan></text>
    <text class="cls-2" transform="translate(1896.3 55.59) scale(.98 1)"><tspan x="0" y="0">16</tspan></text>
    <text class="cls-2" transform="translate(1977.16 55.59) scale(.98 1)"><tspan x="0" y="0">17</tspan></text>
    <text class="cls-2" transform="translate(2058.02 55.59) scale(.98 1)"><tspan x="0" y="0">18</tspan></text>
    <text class="cls-2" transform="translate(2138.88 55.59) scale(.98 1)"><tspan x="0" y="0">19</tspan></text>
    <text class="cls-2" transform="translate(2219.74 55.59) scale(.98 1)"><tspan x="0" y="0">20</tspan></text>
    <text class="cls-2" transform="translate(2300.6 55.59) scale(.98 1)"><tspan x="0" y="0">21</tspan></text>
    <text class="cls-2" transform="translate(2381.47 55.59) scale(.98 1)"><tspan x="0" y="0">23</tspan></text>
    <text class="cls-2" transform="translate(2462.33 55.59) scale(.98 1)"><tspan x="0" y="0">24</tspan></text>
    <text class="cls-2" transform="translate(2543.19 55.59) scale(.98 1)"><tspan x="0" y="0">25</tspan></text>
    <text class="cls-2" transform="translate(2624.05 55.59) scale(.98 1)"><tspan x="0" y="0">26</tspan></text>
    <text class="cls-2" transform="translate(2704.91 55.59) scale(.98 1)"><tspan x="0" y="0">27</tspan></text>
    <text class="cls-2" transform="translate(2785.77 55.59) scale(.98 1)"><tspan x="0" y="0">28</tspan></text>
    <text class="cls-2" transform="translate(2866.63 55.59) scale(.98 1)"><tspan x="0" y="0">29</tspan></text>
    <text class="cls-2" transform="translate(2947.49 55.59) scale(.98 1)"><tspan x="0" y="0">30</tspan></text>
    <text class="cls-2" transform="translate(3028.35 55.59) scale(.98 1)"><tspan x="0" y="0">31</tspan></text>
    <text class="cls-4" transform="translate(613.6 135.01)"><tspan x="0" y="0">1</tspan></text>
    <text class="cls-4" transform="translate(613.6 215.71)"><tspan x="0" y="0">2</tspan></text>
    <text class="cls-4" transform="translate(613.6 296.4)"><tspan x="0" y="0">3</tspan></text>
    <text class="cls-4" transform="translate(613.6 377.1)"><tspan x="0" y="0">4</tspan></text>
    <text class="cls-4" transform="translate(613.6 457.79)"><tspan x="0" y="0">5</tspan></text>
    <text class="cls-4" transform="translate(613.6 538.49)"><tspan x="0" y="0">6</tspan></text>
    <text class="cls-4" transform="translate(613.6 699.88)"><tspan x="0" y="0">8</tspan></text>
    <text class="cls-4" transform="translate(613.6 619.18)"><tspan x="0" y="0">7</tspan></text>
    <text class="cls-4" transform="translate(613.6 780.57)"><tspan x="0" y="0">9</tspan></text>
    <text class="cls-4" transform="translate(608.31 861.27)"><tspan x="0" y="0">10</tspan></text>
    <text class="cls-4" transform="translate(608.31 941.96)"><tspan x="0" y="0">12</tspan></text>
    <text class="cls-4" transform="translate(608.31 1022.66)"><tspan x="0" y="0">13</tspan></text>
    <text class="cls-4" transform="translate(608.31 1103.35)"><tspan x="0" y="0">14</tspan></text>
    <text class="cls-4" transform="translate(608.31 1184.05)"><tspan x="0" y="0">15</tspan></text>
    <text class="cls-4" transform="translate(608.31 1264.74)"><tspan x="0" y="0">16</tspan></text>
    <text class="cls-4" transform="translate(608.31 1506.83)"><tspan x="0" y="0">19</tspan></text>
    <text class="cls-4" transform="translate(608.31 1426.13)"><tspan x="0" y="0">18</tspan></text>
    <text class="cls-4" transform="translate(608.31 1345.44)"><tspan x="0" y="0">17</tspan></text>
  </g>
  <g id="booking_details" data-name="booking details">
    <rect class="cls-11" x="654.9" y="82.34" width="562.86" height="80.34" rx="4.67" ry="4.67"/>
    <rect class="cls-11" x="733.72" y="164.19" width="562.86" height="80.34" rx="4.67" ry="4.67"/>
    <rect class="cls-11" x="657.93" y="252.11" width="562.86" height="80.34" rx="4.67" ry="4.67"/>
    <rect class="cls-11" x="1373.81" y="416.06" width="562.86" height="80.34" rx="4.67" ry="4.67"/>
    <rect class="cls-11" x="703.41" y="415.81" width="562.86" height="80.34" rx="4.67" ry="4.67"/>
    <rect class="cls-11" x="1315.78" y="246.04" width="562.86" height="80.34" rx="4.67" ry="4.67"/>
    <rect class="cls-1" x="1876.55" y="90.3" width="562.86" height="80.34" rx="4.67" ry="4.67"/>
    <rect class="cls-15" x="1709.81" y="164.57" width="562.86" height="80.34" rx="4.67" ry="4.67"/>
    <rect class="cls-15" x="2022.06" y="413.16" width="562.86" height="80.34" rx="4.67" ry="4.67"/>
    <rect class="cls-15" x="1946.27" y="270.67" width="562.86" height="80.34" rx="4.67" ry="4.67"/>
    <rect class="cls-14" x="2357.81" y="176.7" width="562.86" height="80.34" rx="4.67" ry="4.67"/>
    <path class="cls-14" d="m3086.65,413.16v80.34h-405.86c-2.58,0-4.67-2.09-4.67-4.67v-71.01c0-2.57,2.09-4.66,4.67-4.66h405.86Z"/>
    <path class="cls-14" d="m3086.65,273.71v80.33h-351.29c-2.58,0-4.67-2.09-4.67-4.66v-71.01c0-2.58,2.09-4.66,4.67-4.66h351.29Z"/>
    <text class="cls-3" transform="translate(2097.53 139.18)"><tspan class="cls-13" x="0" y="0">r</tspan><tspan class="cls-5" x="6.66" y="0">obin2 </tspan></text>
    <text class="cls-3" transform="translate(2268.76 300.62)"><tspan x="0" y="0" xml:space="preserve">    </tspan></text>
    <text class="cls-3" transform="translate(1641.36 127.79)"><tspan class="cls-6" x="0" y="0">r</tspan><tspan x="6.66" y="0">obin</tspan></text>
    <text class="cls-3" transform="translate(912.98 127.15)"><tspan class="cls-6" x="0" y="0">r</tspan><tspan x="6.66" y="0">obin</tspan></text>
    <rect class="cls-11" x="30.32" y="59.1" width="430.48" height="260.72"/>
    <rect class="cls-12" x="3.03" y="474.42" width="457.77" height="303.16"/>
    <rect class="cls-8" y="950.38" width="482.02" height="363.79"/>
    <rect class="cls-8" x="1553.68" y="159.14" width="151.58" height="83.37"/>
    <rect class="cls-8" x="1232.34" y="75.77" width="151.58" height="83.37"/>
    <text class="cls-3" transform="translate(2795.87 109.12)"><tspan class="cls-13" x="0" y="0">r</tspan><tspan class="cls-5" x="6.66" y="0">obin 3</tspan></text>
  </g>
  <g id="room_name" data-name="room name">
    <text class="cls-3" transform="translate(596.38 52.67)"><tspan class="cls-7" x="0" y="0">R</tspan><tspan x="11.38" y="0">oom</tspan></text>
  </g>
</svg>